<svg width="44" height="44" viewBox="0 0 44 44" fill="none" xmlns="http://www.w3.org/2000/svg">
<path d="M38.2072 8.45111C37.2708 7.51428 36.159 6.77113 34.9354 6.26409C33.7117 5.75706 32.4001 5.49609 31.0755 5.49609C29.751 5.49609 28.4394 5.75706 27.2157 6.26409C25.992 6.77113 24.8803 7.51428 23.9439 8.45111L22.0005 10.3944L20.0572 8.45111C18.1658 6.55967 15.6004 5.49707 12.9255 5.49707C10.2506 5.49707 7.68531 6.55967 5.79388 8.45111C3.90244 10.3425 2.83984 12.9079 2.83984 15.5828C2.83984 18.2577 3.90244 20.823 5.79388 22.7144L7.73721 24.6578L22.0005 38.9211L36.2639 24.6578L38.2072 22.7144C39.144 21.7781 39.8872 20.6663 40.3942 19.4426C40.9012 18.2189 41.1622 16.9073 41.1622 15.5828C41.1622 14.2582 40.9012 12.9466 40.3942 11.723C39.8872 10.4993 39.144 9.38749 38.2072 8.45111V8.45111Z" stroke="#302D2A" stroke-width="3"/>
</svg>
