<svg width="19" height="19" viewBox="0 0 19 19" fill="none" xmlns="http://www.w3.org/2000/svg">
<path d="M7.91602 10.2915C8.256 10.746 8.68976 11.1221 9.18787 11.3942C9.68598 11.6664 10.2368 11.8282 10.8029 11.8687C11.3691 11.9093 11.9374 11.8276 12.4692 11.6292C13.001 11.4308 13.4839 11.1204 13.8852 10.719L16.2602 8.34398C16.9812 7.59743 17.3802 6.59754 17.3712 5.55968C17.3622 4.52182 16.9459 3.52902 16.212 2.79511C15.4781 2.0612 14.4853 1.64491 13.4474 1.63589C12.4095 1.62687 11.4096 2.02585 10.6631 2.74689L9.30143 4.10064" stroke="white" stroke-width="1.5"/>
<path d="M11.0842 8.70847C10.7442 8.25395 10.3105 7.87787 9.81237 7.60573C9.31426 7.33359 8.76345 7.17175 8.19729 7.13121C7.63114 7.09066 7.06288 7.17235 6.53107 7.37073C5.99927 7.56911 5.51634 7.87954 5.11506 8.28097L2.74006 10.656C2.01901 11.4025 1.62004 12.4024 1.62906 13.4403C1.63807 14.4781 2.05437 15.4709 2.78828 16.2048C3.52218 16.9387 4.51498 17.355 5.55284 17.3641C6.59071 17.3731 7.59059 16.9741 8.33714 16.2531L9.69089 14.8993" stroke="white" stroke-width="1.5"/>
</svg>
