<svg width="19" height="19" viewBox="0 0 19 19" fill="none" xmlns="http://www.w3.org/2000/svg">
<path d="M2.375 14.25V9.5C2.375 7.61033 3.12567 5.79806 4.46186 4.46186C5.79806 3.12567 7.61033 2.375 9.5 2.375C11.3897 2.375 13.2019 3.12567 14.5381 4.46186C15.8743 5.79806 16.625 7.61033 16.625 9.5V14.25" stroke="#F2F2F2" stroke-width="1.5"/>
<path d="M16.625 15.0418C16.625 15.4618 16.4582 15.8645 16.1613 16.1614C15.8643 16.4583 15.4616 16.6252 15.0417 16.6252H14.25C13.8301 16.6252 13.4273 16.4583 13.1304 16.1614C12.8335 15.8645 12.6667 15.4618 12.6667 15.0418V12.6668C12.6667 12.2469 12.8335 11.8442 13.1304 11.5472C13.4273 11.2503 13.8301 11.0835 14.25 11.0835H16.625V15.0418ZM2.375 15.0418C2.375 15.4618 2.54181 15.8645 2.83875 16.1614C3.13568 16.4583 3.53841 16.6252 3.95833 16.6252H4.75C5.16993 16.6252 5.57265 16.4583 5.86959 16.1614C6.16652 15.8645 6.33333 15.4618 6.33333 15.0418V12.6668C6.33333 12.2469 6.16652 11.8442 5.86959 11.5472C5.57265 11.2503 5.16993 11.0835 4.75 11.0835H2.375V15.0418Z" stroke="#F2F2F2" stroke-width="1.5"/>
</svg>
