<svg width="19" height="19" viewBox="0 0 19 19" fill="none" xmlns="http://www.w3.org/2000/svg">
<path d="M9.50065 17.4168C13.8729 17.4168 17.4173 13.8724 17.4173 9.50016C17.4173 5.12791 13.8729 1.5835 9.50065 1.5835C5.1284 1.5835 1.58398 5.12791 1.58398 9.50016C1.58398 13.8724 5.1284 17.4168 9.50065 17.4168Z" stroke="white" stroke-width="1.5"/>
<path d="M7.19727 7.12496C7.38339 6.59587 7.75076 6.14971 8.23431 5.86553C8.71786 5.58134 9.28639 5.47746 9.8392 5.57228C10.392 5.6671 10.8934 5.9545 11.2546 6.38359C11.6158 6.81268 11.8135 7.35575 11.8127 7.91663C11.8127 9.49996 9.43768 10.2916 9.43768 10.2916L9.50023 11.7354" stroke="white" stroke-width="1.5"/>
<path d="M9.5 13.4585H9.51" stroke="white" stroke-width="1.5" stroke-linecap="round" stroke-linejoin="round"/>
</svg>
