<svg width="46" height="46" viewBox="0 0 46 46" fill="none" xmlns="http://www.w3.org/2000/svg">
<path d="M29.7074 14.3747L36.4157 7.66634M40.2491 3.83301L36.4157 7.66634L40.2491 3.83301ZM21.8299 22.2522C22.8195 23.2287 23.6063 24.3913 24.1448 25.673C24.6832 26.9548 24.9629 28.3304 24.9675 29.7207C24.9722 31.111 24.7018 32.4885 24.1719 33.7738C23.642 35.0592 22.8631 36.227 21.88 37.2101C20.8969 38.1932 19.7291 38.9721 18.4437 39.502C17.1584 40.0319 15.7809 40.3023 14.3906 40.2976C13.0003 40.293 11.6247 40.0134 10.3429 39.4749C9.06114 38.9364 7.89854 38.1497 6.92206 37.16C5.00181 35.1718 3.93927 32.509 3.96329 29.745C3.98731 26.981 5.09596 24.337 7.05047 22.3825C9.00498 20.428 11.649 19.3193 14.413 19.2953C17.1769 19.2713 19.8398 20.3338 21.828 22.2541L21.8299 22.2522ZM21.8299 22.2522L29.7074 14.3747L21.8299 22.2522ZM29.7074 14.3747L35.4574 20.1247L42.1657 13.4163L36.4157 7.66634L29.7074 14.3747Z" stroke="#302D2A" stroke-width="3"/>
</svg>
