<svg width="42" height="42" viewBox="0 0 42 42" fill="none" xmlns="http://www.w3.org/2000/svg">
<path d="M12.25 19.25L19.25 3.5C20.6424 3.5 21.9777 4.05312 22.9623 5.03769C23.9469 6.02226 24.5 7.35761 24.5 8.75V16.9167H33.2383C33.7457 16.9109 34.2482 17.0156 34.7111 17.2233C35.174 17.4311 35.5862 17.737 35.9191 18.1198C36.252 18.5027 36.4977 18.9534 36.6392 19.4406C36.7806 19.9279 36.8145 20.44 36.7383 20.9417L36.4412 22.8527M12.25 19.25V38.5M12.25 19.25H7C6.07174 19.25 5.1815 19.6188 4.52513 20.2751C3.86875 20.9315 3.5 21.8217 3.5 22.75V35C3.5 35.9283 3.86875 36.8185 4.52513 37.4749C5.1815 38.1313 6.07174 38.5 7 38.5H12.25M12.25 38.5H29.6567C30.5007 38.5095 31.3198 38.2137 31.963 37.667C32.6062 37.1203 33.0301 36.3596 33.1567 35.525C33.5891 33.7641 34.9037 28.4116 34.9037 28.4116" stroke="#302D2A" stroke-width="3"/>
</svg>
