<svg width="28" height="28" viewBox="0 0 28 28" fill="none" xmlns="http://www.w3.org/2000/svg">
<circle cx="14" cy="14" r="14" fill="#F26721"/>
<path fill-rule="evenodd" clip-rule="evenodd" d="M17.5921 10.748C20.6033 10.7863 22.3585 12.634 20.3652 15.1601C19.4494 16.3236 17.9023 17.4727 15.8368 18.2143C15.7401 18.2483 15.6381 18.2829 15.5414 18.3163C15.347 18.379 15.1531 18.4375 14.9639 18.4959C14.5182 18.6218 14.0815 18.7334 13.6602 18.8157C13.2087 18.9076 12.7725 18.9756 12.3507 19.0245C12.05 19.0532 11.7594 19.0729 11.4778 19.0776C9.55785 19.126 8.11336 18.6027 7.64266 17.4775C7.07581 16.1345 8.22492 14.2628 10.5226 12.8375C8.82099 13.526 5.73225 15.1357 5.60156 17.4435V17.7346C5.61591 17.9673 5.66 18.2048 5.73756 18.4523C6.22685 20.0084 8.53942 20.7357 11.4778 20.4743C11.7642 20.4494 12.0548 20.4159 12.3507 20.3723C12.7773 20.3091 13.2134 20.222 13.6602 20.12C14.0868 20.018 14.523 19.8968 14.9639 19.7614C15.0612 19.7268 15.1584 19.6982 15.2551 19.6642C15.4538 19.6009 15.6477 19.5329 15.8368 19.4607C18.3874 18.5347 20.2781 17.3027 21.3837 15.8874C22.0137 15.0778 22.3389 14.3213 22.4016 13.6567V13.1477C22.2273 11.4652 20.2638 10.476 17.5921 10.748ZM15.6381 9.91396C15.7109 9.91396 15.7736 9.90386 15.8368 9.88952C16.2639 9.78273 16.4722 9.32691 16.4913 8.78875C16.511 8.21658 16.3075 7.74164 15.8368 7.67364C15.798 7.66407 15.7545 7.66407 15.7109 7.66407C15.3374 7.66407 15.0952 7.8872 14.9639 8.21658C14.9013 8.38659 14.8625 8.5805 14.8577 8.78875C14.8476 9.03632 14.8816 9.26901 14.9639 9.45814C15.0856 9.73439 15.3034 9.91396 15.6381 9.91396ZM15.6285 10.1031C15.4394 10.1031 15.279 10.1222 15.1387 10.1562L15.1775 10.2093L15.2503 10.3406L15.3082 10.476L15.3565 10.6168L15.3905 10.7624L15.415 10.9079L15.4299 11.0583L15.4346 11.2033V11.3584L15.4245 11.5088L15.415 11.6591L15.3953 11.8095L15.3762 11.9598L15.347 12.1102L15.3183 12.2605L15.2891 12.4061L15.2551 12.5517L15.2259 12.6919L15.1918 12.8279L15.1584 12.9586L15.1244 13.0845L15.0952 13.2062L15.0659 13.3225L15.0516 13.3953L15.0319 13.4776L15.0128 13.5648L14.9979 13.6567L14.9788 13.7539L14.9639 13.8362V13.8554L14.9448 13.9621L14.9252 14.0689L14.9108 14.1805L14.8912 14.2968L14.8768 14.4132L14.8577 14.5295L14.8428 14.6507L14.8237 14.767L14.8088 14.8881L14.7945 15.0093L14.7801 15.1309V15.1357C14.8088 15.4847 14.8333 15.7806 14.8476 15.9501C14.8625 16.144 14.9013 16.2848 14.9639 16.3767C15.0564 16.5175 15.2062 16.5658 15.4198 16.5855C15.5993 16.5658 15.7353 16.5318 15.8368 16.4352C15.934 16.3433 15.9919 16.1929 16.0307 15.9501C16.1083 15.4507 16.3314 13.8118 16.5253 13.1089C16.8016 12.0958 17.4662 10.2534 15.8368 10.1126C15.7693 10.1031 15.7013 10.1031 15.6285 10.1031ZM13.6501 9.58404H13.6602C14.2903 9.57926 14.5857 9.00231 14.5857 8.29415C14.5857 7.58651 14.2903 7.00478 13.6602 7H13.6501C13.01 7 12.7146 7.58173 12.7146 8.29415C12.7146 9.0071 13.01 9.58404 13.6501 9.58404ZM12.3507 12.5756C12.4091 12.8231 12.467 13.0505 12.5154 13.2545C12.7146 14.0641 12.9085 15.9453 12.9813 16.5127C13.0488 17.0849 13.2528 17.206 13.6602 17.2448C14.0624 17.206 14.2659 17.0849 14.3339 16.5127C14.4019 15.9453 14.6006 14.0641 14.7945 13.2545C14.8428 13.0505 14.906 12.8231 14.9639 12.5756C15.1435 11.8339 15.2891 10.9611 14.9639 10.3985C14.7557 10.0399 14.3578 9.80186 13.6602 9.80186C12.9568 9.80186 12.5541 10.0399 12.3507 10.3985C12.0261 10.9611 12.1711 11.8339 12.3507 12.5756ZM11.4778 9.88952C11.541 9.90386 11.6043 9.91396 11.6765 9.91396C12.0117 9.91396 12.2295 9.73439 12.3507 9.45814C12.4282 9.26901 12.4622 9.03632 12.4575 8.78875C12.4479 8.5805 12.4139 8.38659 12.3507 8.21658C12.22 7.8872 11.9724 7.66407 11.6043 7.66407C11.5602 7.66407 11.5166 7.66407 11.4778 7.67364C11.0077 7.74164 10.8042 8.21658 10.8233 8.78875C10.8382 9.32691 11.0517 9.78273 11.4778 9.88952ZM11.2839 15.9501C11.3179 16.1929 11.3811 16.3433 11.4778 16.4352C11.5798 16.5318 11.7158 16.5658 11.8949 16.5855C12.1084 16.5658 12.2535 16.5175 12.3507 16.3767C12.4091 16.2848 12.4479 16.144 12.467 15.9501C12.4819 15.7806 12.5058 15.4847 12.535 15.1405V15.1309L12.5201 15.0093L12.5058 14.8881L12.4867 14.767L12.4718 14.6507L12.4575 14.5295L12.4383 14.4132L12.4235 14.2968L12.4043 14.1805L12.3847 14.0689L12.3703 13.9621L12.3507 13.8554V13.841L12.3363 13.7539L12.3167 13.6567L12.2976 13.5648L12.2827 13.4776L12.2636 13.3953L12.2439 13.3225L12.22 13.2062L12.186 13.0845L12.1568 12.9586L12.1228 12.8279L12.0888 12.6919L12.0548 12.5517L12.0261 12.4061L11.9921 12.2605L11.9629 12.1102L11.9384 11.9598L11.9193 11.8095L11.8996 11.6591L11.8853 11.5088L11.8805 11.3537V11.2033L11.8853 11.0583L11.8996 10.9079L11.9241 10.7624L11.9581 10.6168L12.0016 10.476L12.0649 10.3406L12.1376 10.2093L12.1759 10.1562C12.0356 10.1222 11.8704 10.1031 11.6866 10.1031C11.6138 10.1031 11.5458 10.1031 11.4778 10.1126C9.84898 10.2534 10.5131 12.0958 10.7898 13.1089C10.9837 13.8118 11.2063 15.4507 11.2839 15.9501Z" fill="white"/>
</svg>
