<svg width="57" height="44" viewBox="0 0 57 44" fill="none" xmlns="http://www.w3.org/2000/svg">
<path d="M0.291016 43.5209V31.2634C0.291016 27.7383 0.95196 24.0731 2.27385 20.2677C3.63579 16.4222 5.47843 12.797 7.80174 9.39214C10.1651 5.94722 12.8089 3.04307 15.7331 0.679688L25.8275 7.22904C23.4641 10.7941 21.4813 14.5195 19.879 18.405C18.3168 22.2505 17.5557 26.4966 17.5957 31.1432V43.5209H0.291016ZM30.7545 43.5209V31.2634C30.7545 27.7383 31.4155 24.0731 32.7374 20.2677C34.0993 16.4222 35.9419 12.797 38.2653 9.39214C40.6286 5.94722 43.2724 3.04307 46.1966 0.679688L56.291 7.22904C53.9276 10.7941 51.9448 14.5195 50.3425 18.405C48.7803 22.2505 48.0192 26.4966 48.0593 31.1432V43.5209H30.7545Z" fill="#D97E56"/>
</svg>
