<?xml version="1.0" encoding="utf-8"?>
<!-- Generator: Adobe Illustrator 23.0.3, SVG Export Plug-In . SVG Version: 6.00 Build 0)  -->
<svg version="1.1"
	 id="Layer_1" xmlns:cc="http://creativecommons.org/ns#" xmlns:dc="http://purl.org/dc/elements/1.1/" xmlns:inkscape="http://www.inkscape.org/namespaces/inkscape" xmlns:rdf="http://www.w3.org/1999/02/22-rdf-syntax-ns#" xmlns:sodipodi="http://sodipodi.sourceforge.net/DTD/sodipodi-0.dtd" xmlns:svg="http://www.w3.org/2000/svg"
	 xmlns="http://www.w3.org/2000/svg" xmlns:xlink="http://www.w3.org/1999/xlink" x="0px" y="0px" viewBox="0 0 340.1 174"
	 style="enable-background:new 0 0 340.1 174;" xml:space="preserve">
<style type="text/css">
	.st0{fill:#90909E;}
	.st1{fill:#CCB382;}
	.st2{fill:#6994DA;}
	.st3{fill:#C4C4C4;}
	.st4{fill:#6AAE66;}
	.st5{fill:#5B80C0;}
	.st6{fill:#E2AC2A;}
	.st7{fill:#FFBD30;}
	.st8{fill:#D1A6A4;}
	.st9{fill:#A4AFD1;}
	.st10{fill:#E0E0E0;}
	.st11{fill:#9DBA90;}
	.st12{fill:#FFFFFF;}
	.st13{fill:#D46B3F;}
	.st14{fill:#C4C3C3;}
	.st15{fill:#5881CB;}
	.st16{fill:#419161;}
	.st17{fill:#F5F5F5;}
	.st18{fill:#CC4433;}
	.st19{fill:url(#polygon224_1_);}
	.st20{fill:#D86660;}
	.st21{fill:#479446;}
</style>
<sodipodi:namedview  bordercolor="#666666" borderopacity="1" gridtolerance="10" guidetolerance="10" id="namedview245" inkscape:current-layer="Layer_1" inkscape:cx="135.60495" inkscape:cy="87.281379" inkscape:pageopacity="0" inkscape:pageshadow="2" inkscape:window-height="705" inkscape:window-maximized="1" inkscape:window-width="1366" inkscape:window-x="-8" inkscape:window-y="-8" inkscape:zoom="2.6220472" objecttolerance="10" pagecolor="#ffffff" showgrid="false">
	</sodipodi:namedview>
<g id="Layer_1_2_">
	<g id="Layer_1_1_">
		<path id="path7" class="st0" d="M44.9,4.1c-5.5-5.5-14.3-5.5-19.8,0s-5.5,14.3,0,19.8s14.3,5.5,19.8,0S50.4,9.6,44.9,4.1z
			 M46.9,15.3c-0.1,1.2-0.4,2.3-0.9,3.3l-2.9-1c1-2.3,1-5,0-7.4l2.9-1C46.8,11.2,47.2,13.2,46.9,15.3z M23.1,12.7
			c0.1-1.1,0.4-2.2,0.8-3.2l2.8,1.2c-0.9,2.3-0.9,4.8,0.1,7.1l-2.9,1C23.2,16.8,22.8,14.8,23.1,12.7z M28,14c0-3.9,3.1-7,7-7
			s7,3.1,7,7s-3.1,7-7,7S28,17.9,28,14z M36.3,2.1c1.2,0.1,2.3,0.4,3.3,0.9l-1,2.9c-2.5-1.1-5.3-1-7.7,0.2l-1.3-2.7
			C31.6,2.3,33.9,1.8,36.3,2.1z M33.7,25.9c-1.2-0.1-2.3-0.4-3.3-0.9l1-2.9c2.4,1.1,5.1,1,7.4,0l1.6,2.6
			C38.3,25.7,36,26.2,33.7,25.9z"/>
		<path id="path9" class="st0" d="M60.4,22.1c0,0-0.8,0.3-1.5,0.3c-0.4,0-0.6-0.1-0.6-0.1c-0.2-0.2-0.7-0.5,0.1-2.1l1.5-3
			c0.9-1.8,1-3.5,0.4-4.8c-0.5-1.1-1.5-1.8-2.9-2.1c-0.5-0.1-0.9-0.1-1.4-0.1c-2.7,0-4.6,1.6-4.7,1.7c-0.3,0.2-0.3,0.6-0.2,0.9
			c0.2,0.3,0.5,0.4,0.9,0.3c0,0,0.8-0.3,1.5-0.3c0.4,0,0.5,0.1,0.6,0.1c0.3,0.2,0.7,0.5-0.1,2.1l-1.5,3c-0.9,1.8-1,3.5-0.4,4.8
			c0.5,1.1,1.5,1.8,2.9,2.1c0.5,0.1,0.9,0.1,1.4,0.1c2.7,0,4.6-1.6,4.7-1.7c0.3-0.2,0.3-0.6,0.2-0.9C61.1,22.1,60.7,22,60.4,22.1z"
			/>
		<circle id="circle11" class="st0" cx="59" cy="5" r="4"/>
		<path id="path13" class="st0" d="M69.7,28.9c0.3,0.1,0.6-0.2,0.4-0.4c-0.9-1.4-1.8-3.8-0.4-6.8c2.3-5.1,3.8-7.7,3.8-7.7
			s0.8,3.1,2.8,5.8c2,2.6,3.1,5.9,1.3,8.7c-0.2,0.3,0.1,0.6,0.4,0.4c2.2-1.1,4.6-3.2,4.8-7.5c0.1-1.3-0.1-3.1-0.8-5.4
			c-1-2.9-2.2-4.3-2.9-4.9c-0.2-0.2-0.5,0-0.5,0.2c0.2,3.2-1,4-1.7,2.2c-0.3-0.7-0.4-2-0.4-3.5c0-2.5-0.8-5.1-2.4-7.2
			c-0.4-0.6-0.9-1.1-1.5-1.5c-0.2-0.2-0.5,0-0.5,0.3c0.1,1.7,0,6.6-4.4,12.5c-4,5.4-2.5,9.6-1.9,10.8C66.8,26.9,68.3,28.1,69.7,28.9
			z"/>
		<path id="path15" class="st0" d="M5.4,34.1c2.8-0.6,5.9,0,6.6,3c0.6,2.8-2.4,4.6-2.8,5.8c-0.4,0.9,0.1,1.9-1.4,2.2
			C6.7,45.3,6.1,44.7,6,44c-0.6-2.5,3.1-4,2.6-6.1c-0.3-1.2-1.2-1.7-2.5-1.4c-2.8,0.6-1.1,3.2-3.2,3.7c-0.8,0.2-1.5-0.1-1.7-1
			C0.7,37.2,2.7,34.8,5.4,34.1z M8.1,46.5c1-0.2,2,0.4,2.2,1.3c0.2,1-0.4,1.9-1.4,2.2c-1,0.2-2-0.4-2.2-1.3
			C6.5,47.7,7.1,46.7,8.1,46.5z"/>
		<path id="path17" class="st0" d="M14.9,40.6c2.2-0.1,4.4,0.8,4.5,3.2c0.1,2.2-2.4,3.1-3,3.9c-0.4,0.6-0.2,1.4-1.4,1.5
			c-0.7,0-1.1-0.5-1.1-1.1c-0.1-2,2.9-2.6,2.8-4.2c0-0.9-0.7-1.4-1.7-1.4c-2.2,0.1-1.3,2.3-2.9,2.3c-0.6,0-1.1-0.3-1.2-1
			C10.9,42.2,12.8,40.7,14.9,40.6z M15.2,50.2c0.8,0,1.4,0.6,1.5,1.3c0,0.8-0.6,1.4-1.4,1.4s-1.4-0.6-1.5-1.3
			C13.8,50.9,14.4,50.3,15.2,50.2z"/>
		<path id="path19" class="st0" d="M25.1,32.1c2.8,0.5,5.4,2.3,4.8,5.4c-0.5,2.8-4,3.3-4.9,4.1c-0.7,0.7-0.7,1.7-2.2,1.5
			c-0.9-0.2-1.3-1-1.1-1.7c0.5-2.6,4.5-2.4,4.9-4.5c0.2-1.2-0.4-2-1.8-2.3c-2.8-0.5-2.3,2.5-4.4,2.1c-0.8-0.1-1.4-0.7-1.2-1.6
			C19.6,33,22.4,31.6,25.1,32.1z M22.7,44.5c1,0.2,1.7,1.1,1.5,2.1S23,48.2,22,48s-1.7-1.1-1.5-2.1C20.7,45,21.7,44.3,22.7,44.5z"/>
		<path id="path21" class="st1" d="M61,31H35c-1.7,0-3,1.3-3,3v19c0,1.6,1.3,3,3,3h20.3l8.7,7V34C63.9,32.3,62.7,31,61,31z M42,45
			c-1.1,0-2-0.9-2-2s0.9-2,2-2s2,0.9,2,2S43.1,45,42,45z M48,45c-1.1,0-2-0.9-2-2s0.9-2,2-2s2,0.9,2,2S49.1,45,48,45z M54,45
			c-1.1,0-2-0.9-2-2s0.9-2,2-2s2,0.9,2,2S55.1,45,54,45z"/>
		<path id="path23" class="st2" d="M95,37H69c-1.7,0-3,1.3-3,3v19c0,1.6,1.3,3,3,3h20.3l8.7,7V40C97.9,38.3,96.7,37,95,37z M81.5,55
			c-0.8,0-1.5-0.7-1.5-1.5s0.7-1.5,1.5-1.5s1.5,0.7,1.5,1.5S82.3,55,81.5,55z M85.1,47.1c-0.3,2-1.4,2.2-2.1,2.9
			c-0.8,0.8-0.4,1.5-1.5,1.5c-0.7,0-1-0.5-1-1c0-1.8,2.6-2,2.6-3.5c0-0.8-0.7-1.4-1.7-1.4c-2.2,0-1,2.5-2.5,2.5c-1.1,0-1-0.9-1-1.5
			c0-1.5,1.8-2.8,3.7-2.8C83.7,43.7,85.4,45.2,85.1,47.1z"/>
		<path id="path25" class="st3" d="M100,19H86c-0.8,0-1,0.2-1,1v10c0,0.8,0.2,1,1,1h11l4,4v-5v-0.5V20C101,19.2,100.8,19,100,19z
			 M91,25.5c0,0.3-0.2,0.5-0.5,0.5h-1c-0.3,0-0.5-0.2-0.5-0.5v-1c0-0.3,0.2-0.5,0.5-0.5h1c0.3,0,0.5,0.2,0.5,0.5V25.5z M94,25.5
			c0,0.3-0.2,0.5-0.5,0.5h-1c-0.3,0-0.5-0.2-0.5-0.5v-1c0-0.3,0.2-0.5,0.5-0.5h1c0.3,0,0.5,0.2,0.5,0.5V25.5z M97,25.5
			c0,0.3-0.2,0.5-0.5,0.5h-1c-0.3,0-0.5-0.2-0.5-0.5v-1c0-0.3,0.2-0.5,0.5-0.5h1c0.3,0,0.5,0.2,0.5,0.5V25.5z"/>
		<path id="path27" class="st4" d="M113,63c-1.6,1.5-2,1.2-2,0c0,0,1-1.8-1-5c-5.1,0-10-4.8-10-10.6c0-6.3,4.9-11.4,11-11.4
			s11,4.9,11,11.2C122,53,120.1,56.1,113,63z M114.8,44c0,0-4.3,3.9-4.9,3.9S108,47,108,47s-2.1-0.8-2,1c1,1.5,3.2,3.6,4.2,4
			c1.6-0.5,4.5-4.7,5.8-6.7C116,43.8,114.8,44,114.8,44z"/>
		<path id="path29" class="st3" d="M113,94c-1.6,1.5-2,1.2-2,0c0,0,1-1.8-1-5c-5.1,0-10-4.8-10-10.6c0-6.3,4.9-11.4,11-11.4
			s11,4.9,11,11.2C122,84,120.1,87.1,113,94z M114.8,75c0,0-4.3,3.9-4.9,3.9S108,78,108,78s-2.1-0.8-2,1c1,1.5,3.2,3.6,4.2,4
			c1.6-0.5,4.5-4.7,5.8-6.7C116,74.8,114.8,75,114.8,75z"/>
		<path id="path31" class="st5" d="M131,64c-3.9,0-7,3.1-7,7s3.1,7,7,7c3.9,0,7-3.1,7-7S134.9,64,131,64z M132,74.6
			c0,0.2-0.2,0.4-0.4,0.4h-1.3c-0.2,0-0.4-0.2-0.4-0.4v-1.3c0-0.2,0.2-0.4,0.4-0.4h1.3c0.2,0,0.4,0.2,0.4,0.4V74.6z M132,71
			c-0.3,0.4,0.1,1-1,1c-1,0-1-0.5-1-0.8c0-1.3,2-1.6,2-2.4s-0.5-0.9-1-0.9c-1.4,0-0.9,1.4-1.9,1.4c-0.4,0-0.7-0.2-0.7-0.6
			c0-1,1.3-2.3,2.6-2.3c1.4,0,2.6,0.9,2.6,2.4C133.6,70.1,132.4,70.5,132,71z"/>
		<g id="g33">
			<path id="path35" class="st6" d="M16.5,60l2.3,7.1c0.5,1.4,1.8,2.4,3.3,2.4h7.6L23.6,74c-1.2,0.9-1.7,2.5-1.3,3.9l2.3,7.2
				l-6.1-4.4c-0.5-0.4-1.2-0.7-2-0.7c-0.7,0-1.5,0.2-2.1,0.7l-6.1,4.4l2.3-7.2c0.5-1.4,0-3-1.3-3.9l-6.1-4.5h7.6
				c1.5,0,2.9-1,3.3-2.4L16.5,60 M16.5,57c-0.9,0-1.8,0.5-2.2,1.6l-2.5,7.8c-0.1,0.4-0.5,0.7-0.9,0.7H2.7c-2.2,0-3.1,2.8-1.4,4.1
				L8,76c0.3,0.3,0.5,0.7,0.4,1.1L5.8,85c-0.5,1.6,0.8,3,2.2,3c0.4,0,0.9-0.1,1.3-0.4l6.6-4.8c0.2-0.1,0.4-0.2,0.6-0.2
				s0.4,0.1,0.6,0.2l6.6,4.8c0.4,0.3,0.9,0.4,1.3,0.4c1.4,0,2.7-1.4,2.2-3l-2.5-7.8c-0.1-0.4,0-0.9,0.4-1.1l6.7-4.9
				c1.8-1.3,0.9-4.1-1.4-4.1h-8.2c-0.4,0-0.8-0.3-0.9-0.7l-2.5-7.8C18.4,57.5,17.4,57,16.5,57L16.5,57z"/>
		</g>
		<path id="path37" class="st7" d="M143.2,114.5l-11.3-20c-0.4-0.7-1.4-0.7-1.7,0l-11.3,20c-0.4,0.7,0.1,1.5,0.9,1.5h22.7
			C143.1,116,143.6,115.2,143.2,114.5z M132,113h-2v-2h2V113z M132,109h-2v-8h2V109z"/>
		<path id="path39" class="st0" d="M204.4,169.5l-11.3-20c-0.4-0.7-1.4-0.7-1.7,0l-11.3,20c-0.4,0.7,0.1,1.5,0.9,1.5h22.7
			C204.3,171,204.8,170.2,204.4,169.5z M193.2,168h-2v-2h2V168z M193.2,164h-2v-8h2V164z"/>
		<path id="path41" class="st4" d="M171,33.4l-1.4-1.4c-0.2-0.2-0.5-0.2-0.7,0l-6.9,6.9l-3.7-3.7c-0.2-0.2-0.5-0.2-0.7,0l-1.4,1.4
			c-0.2,0.2-0.2,0.5,0,0.7l5.4,5.4c0.1,0.1,0.3,0.2,0.4,0.1c0.1,0,0.3,0,0.4-0.1l8.6-8.6C171.2,33.9,171.2,33.6,171,33.4z"/>
		<path id="path43" class="st3" d="M171.1,46.3l-1.4-1.4c-0.2-0.2-0.5-0.2-0.7,0l-7,7l-3.7-3.7c-0.2-0.2-0.5-0.2-0.7,0l-1.4,1.4
			c-0.2,0.2-0.2,0.5,0,0.7l5.4,5.4c0.1,0.1,0.3,0.2,0.4,0.1c0.1,0,0.3,0,0.4-0.1l8.7-8.7C171.3,46.8,171.3,46.5,171.1,46.3z"/>
		<path id="path45" class="st3" d="M140.3,71.4l5.3,5.3c0.2,0.2,0.6,0.3,0.9,0.3c0.3,0.1,0.7,0,0.9-0.3l5.3-5.3c0.4-0.4,0.4-1,0-1.4
			s-1-0.4-1.4,0l-4.8,4.8l-4.8-4.8c-0.4-0.4-1-0.4-1.4,0S139.9,71,140.3,71.4z"/>
		<polygon id="polygon47" class="st3" points="171.1,70.6 165.4,64.9 171,59.3 169.6,57.9 164,63.4 158.4,57.9 157,59.3 162.6,64.9 
			156.9,70.6 158.3,72 164,66.3 169.7,72 		"/>
		<path id="path49" class="st8" d="M150,43v15c0,0.5-0.4,1-1,1h-21c-0.6,0-1-0.5-1-1V37c0-0.5,0.4-1,1-1h15l3-3h-19
			c-1.7,0-3,1.3-3,3v23c0,1.7,1.3,3,3,3h23c1.6,0,3-1.3,3-3V40L150,43z"/>
		<polygon id="polygon51" class="st8" points="135.1,46.7 134.8,47 133.8,52 138.8,51 139.1,50.7 		"/>
		<g id="g53">
			<path id="path55" class="st8" d="M150.5,39.3l2.3-2.3c0,0,0-2-1-3s-3-1-3-1l-2.3,2.3L150.5,39.3z"/>
			<polygon id="polygon57" class="st8" points="145.1,36.7 136.6,45.4 140.4,49.2 149.1,40.7 			"/>
		</g>
		<path id="path59" class="st9" d="M130.1,1h-20.3c-1.6,0-2.8,1.3-2.8,2.9V17c0,1.6,1.2,2.9,2.8,2.9h16l7.1,5V17v-2v-1V3.9
			C133,2.3,131.7,1,130.1,1z M114,13c-1.1,0-2-0.9-2-2s0.9-2,2-2s2,0.9,2,2S115.1,13,114,13z M120,13c-1.1,0-2-0.9-2-2s0.9-2,2-2
			s2,0.9,2,2S121.1,13,120,13z M126,13c-1.1,0-2-0.9-2-2s0.9-2,2-2s2,0.9,2,2S127.1,13,126,13z"/>
		<g id="g61">
			<path id="path63" class="st9" d="M124.9,21H108c-1.4,0-2-0.6-2-2V9h-0.1c-1.6,0-2.9,1.3-2.9,2.9V20v1v2.1V31l6-4l13.2-0.1
				c1.6,0,2.8-1.3,2.8-2.9v-2.9L124.9,21z"/>
		</g>
		<path id="path65" class="st10" d="M173.7,15.5c0.2-0.8,0.3-1.7,0.3-2.5c0-6.1-4.9-11-11-11c-4.5,0-8.3,2.7-10,6.5
			c-1.4-0.9-3.1-1.5-5-1.5c-4.9,0-8.8,3.9-9,8.7c-2.4,1.1-4,3.5-4,6.3c0,3.9,3.1,7,7,7h10v-6h-3l7-9l7,9h-3v6h10v-0.1
			c0.3,0,0.7,0.1,1,0.1c3.9,0,7-3.1,7-7C178,19.1,176.2,16.6,173.7,15.5z"/>
		<path id="path67" class="st11" d="M50,65H38c-1.7,0-3,1.3-3,3v19c0,1.7,1.3,3,3,3h12c1.7,0,3-1.3,3-3V68C53,66.3,51.7,65,50,65z
			 M44,84h-4c-0.5,0-1-0.5-1-1s0.5-1,1-1h4c0.5,0,1,0.5,1,1S44.5,84,44,84z M48,80h-8c-0.5,0-1-0.5-1-1s0.5-1,1-1h8c0.5,0,1,0.5,1,1
			S48.5,80,48,80z M48,76h-8c-0.5,0-1-0.5-1-1s0.5-1,1-1h8c0.5,0,1,0.5,1,1S48.5,76,48,76z M48,72h-8c-0.5,0-1-0.5-1-1s0.5-1,1-1h8
			c0.5,0,1,0.5,1,1S48.5,72,48,72z"/>
		<path id="path69" class="st11" d="M54,68v20c0,2.4-0.7,3-3,3H38c0.1,1.1,1.1,2,2.3,2H53c1.7,0,3-1.3,3-3V70.3
			C56,69.1,55.1,68.2,54,68z"/>
		<path id="path71" class="st3" d="M89,99c-2.8,0-5,2.2-5,5s5,10,5,10s5-7.2,5-10S91.8,99,89,99z M89,107c-1.7,0-3-1.3-3-3
			s1.3-3,3-3s3,1.3,3,3S90.7,107,89,107z"/>
		<polygon id="polygon73" class="st12" points="2,25 6,22 6,22 6,28 6,28 		"/>
		<polygon id="polygon75" class="st3" points="4,24 6,22 5,22 1,25 5,28 6,28 4,26 2,25 		"/>
		<path id="path77" class="st12" d="M66.5,75.3c-0.3,0.9-0.7,1.2-1.6,1.2c-0.1,0-0.2,0-0.3,0c-0.1-0.2-0.2-0.3-0.3-0.5
			c-0.1-0.1-0.2-0.3-0.4-0.4c0.6-0.5,0.9-1.2,0.9-2.1l0,0c0,0,0,0,0.1,0c0.6,0,1.6,0.1,1.6,0.9C66.5,74.6,66.6,75,66.5,75.3z
			 M62.5,75.5c-0.9,0-1.6-1-1.6-2c0-0.2,0-0.6,0-0.9c0-1.1,0.9-1.7,1.6-1.7c0.7,0,1.6,0.8,1.6,1.7c0,0.3,0,0.6,0,0.9
			C64.1,74.6,63.4,75.5,62.5,75.5z M61.1,75.6c-0.1,0.1-0.3,0.2-0.4,0.4c-0.1,0.1-0.2,0.3-0.3,0.5c-0.1,0-0.2,0-0.3,0
			c-0.9,0-1.2-0.2-1.6-1.2c-0.1-0.2,0-0.7,0-0.9c0-0.8,0.9-0.9,1.6-0.9l0,0l0,0C60.1,74.4,60.5,75.2,61.1,75.6z M58.9,77.4
			c0.3-0.3,0.7-0.5,1.2-0.5l0,0h0.1c-0.1,0.4-0.2,0.8-0.1,1.2l0.5,5.6C60.4,83.9,60.3,84,60,84c-0.4,0-0.8-0.5-0.8-0.9l-0.7-4.4
			C58.4,78.1,58.6,77.7,58.9,77.4z M61.3,76.6c0.3-0.4,0.7-0.6,1.2-0.6l0,0c0.5,0,0.9,0.2,1.2,0.6s0.4,0.9,0.4,1.5l-0.7,5.6
			c-0.1,0.5-0.4,1.1-0.9,1.1c-0.4,0-0.8-0.5-0.9-1.1l-0.7-5.6C60.9,77.6,61,77,61.3,76.6z M64.8,76.9L64.8,76.9L64.8,76.9
			c0.6,0,1,0.2,1.3,0.5s0.4,0.7,0.4,1.2L65.8,83c-0.1,0.4-0.4,0.9-0.8,0.9c-0.2,0-0.4-0.1-0.6-0.3l0.5-5.6
			C64.9,77.7,64.9,77.3,64.8,76.9z"/>
		<path id="path79" class="st12" d="M85.9,75.2c0,0.1,0,0.3,0,0.4c0,4.3-3.2,9.2-9.2,9.2c-1.8,0-3.5-0.5-4.9-1.4c0.3,0,0.5,0,0.8,0
			c1.5,0,2.9-0.5,4-1.4c-1.4,0-2.6-1-3-2.2c0.2,0,0.4,0.1,0.6,0.1c0.3,0,0.6,0,0.9-0.1c-1.5-0.3-2.6-1.6-2.6-3.2l0,0
			c0.4,0.2,0.9,0.4,1.5,0.4c-0.9-0.6-1.4-1.6-1.4-2.7c0-0.6,0.2-1.1,0.4-1.6c1.6,2,4,3.2,6.7,3.4c-0.1-0.2-0.1-0.5-0.1-0.7
			c0-1.8,1.4-3.2,3.2-3.2c0.9,0,1.8,0.4,2.4,1c0.7-0.1,1.4-0.4,2.1-0.8c-0.2,0.8-0.8,1.4-1.4,1.8c0.7-0.1,1.3-0.3,1.9-0.5
			C87,74.2,86.5,74.7,85.9,75.2z"/>
		<path id="path81" class="st12" d="M96.7,71h-2c-2.3,0-3.7,1.4-3.7,3.7v1.7h-2c-0.2,0-0.3,0.1-0.3,0.3v2.5c0,0.2,0.1,0.3,0.3,0.3h2
			v6.2c0,0.2,0.1,0.3,0.3,0.3h2.6c0.2,0,0.3-0.1,0.3-0.3v-6.2h2.4c0.2,0,0.3-0.1,0.3-0.3v-2.5c0-0.1,0-0.2-0.1-0.2
			c-0.1-0.1-0.1-0.1-0.2-0.1h-2.4V75c0-0.7,0.2-1,1.1-1h1.4c0.2,0,0.3-0.1,0.3-0.3v-2.3C97,71.1,96.9,71,96.7,71z"/>
		<polygon id="polygon83" class="st13" points="108,97 105,97 105,98 106,98 106,112 107,112 107,98 108,98 		"/>
		<path id="path85" class="st13" d="M108,105v-6c0,0,2.2,1.2,5,0s4,0,4,0v6c0,0-2.4-1.8-5-1S109.3,105,108,105z"/>
		<path id="path87" class="st14" d="M62.7,108.1L58,113h1h12h1l-5-4.9l-2,1.5L62.7,108.1z"/>
		<path id="path89" class="st14" d="M71.9,102H58.2c-0.3,0-0.6,0.1-0.8,0.3L65,108l7.7-5.7C72.5,102.1,72.2,102,71.9,102z"/>
		<path id="path91" class="st14" d="M57,112.2l5.1-4.9L57,103V112.2z"/>
		<path id="path93" class="st14" d="M73,112.1V103l-5.1,4.3L73,112.1z"/>
		<path id="path95" class="st0" d="M128.9,86.7l-4,4.3h0.9h10.5h0.9l-4.1-4.2l-2.1,1.9L128.9,86.7z"/>
		<path id="path97" class="st0" d="M137.1,81h-12c-0.3,0-0.5,0.1-0.7,0.3l6.6,5.9l6.9-5.9C137.6,81.1,137.3,81,137.1,81z"/>
		<path id="path99" class="st0" d="M124,90l4-3.9l-4-3.9C124,82.4,124,90,124,90z"/>
		<path id="path101" class="st0" d="M138,90v-7.7l-4.1,3.9L138,90z"/>
		<path id="path103" class="st0" d="M154.9,126.5c0-0.1-0.2-0.2-0.3-0.2c-0.5,0-0.9-0.3-1-0.7c-0.2-0.4-0.1-0.9,0.3-1.2
			c0.1-0.1,0.1-0.3,0-0.4c-0.2-0.3-0.5-0.6-0.8-0.8c-0.1-0.1-0.3-0.1-0.4,0c-0.3,0.3-0.8,0.4-1.2,0.3c-0.4-0.2-0.7-0.6-0.7-1.1
			c0-0.1-0.1-0.3-0.2-0.3c-0.4,0-0.7,0-1.1,0c-0.1,0-0.3,0.1-0.2,0.3c0,0.5-0.3,0.9-0.7,1.1s-0.9,0-1.2-0.3c-0.1-0.1-0.3-0.1-0.4,0
			c-0.3,0.2-0.6,0.5-0.8,0.8c-0.1,0.1-0.1,0.3,0,0.4c0.3,0.3,0.5,0.8,0.3,1.2c-0.2,0.4-0.6,0.7-1.1,0.7c-0.2,0-0.3,0.1-0.3,0.2
			c0,0.4,0,0.8,0,1.1c0,0.1,0.2,0.2,0.3,0.2c0.4,0,0.8,0.3,1,0.7c0.2,0.4,0.1,0.9-0.3,1.2c-0.1,0.1-0.1,0.3,0,0.4
			c0.2,0.3,0.5,0.6,0.8,0.8c0.1,0.1,0.3,0.1,0.4,0c0.3-0.3,0.8-0.4,1.2-0.3c0.4,0.2,0.7,0.6,0.7,1.1c0,0.1,0.1,0.3,0.2,0.3
			c0.2,0,0.4,0,0.6,0c0.2,0,0.4,0,0.5,0s0.3-0.1,0.2-0.3c0-0.5,0.3-0.9,0.7-1.1c0.4-0.2,0.9,0,1.2,0.3c0.1,0.1,0.3,0.1,0.4,0
			c0.3-0.2,0.6-0.5,0.8-0.8c0.1-0.1,0.1-0.3,0-0.4c-0.3-0.3-0.5-0.8-0.3-1.2s0.6-0.7,1-0.7h0.1c0.1,0,0.3-0.1,0.3-0.2
			C154.9,127.2,154.9,126.9,154.9,126.5z M150,129.4c-1.3,0-2.4-1.1-2.4-2.4c0-1.3,1.1-2.4,2.4-2.4c1.3,0,2.4,1.1,2.4,2.4
			C152.3,128.4,151.3,129.4,150,129.4z"/>
		<rect id="rect105" x="154" y="110" class="st10" width="3" height="7"/>
		<rect id="rect107" x="159" y="104" class="st10" width="3" height="13"/>
		<rect id="rect109" x="164" y="98" class="st10" width="3" height="19"/>
		<rect id="rect111" x="169" y="106" class="st10" width="3" height="11"/>
		<rect id="rect113" x="152" y="119" class="st10" width="22" height="1"/>
		<g id="g115">
			<path id="path117" class="st3" d="M188,99c-2.2,0-4,1.8-4,4s1.8,4,4,4s4-1.8,4-4S190.2,99,188,99z M188,106c-1.7,0-3-1.3-3-3
				s1.3-3,3-3s3,1.3,3,3S189.7,106,188,106z"/>
			<polygon id="polygon119" class="st3" points="188,101 187,101 187,103 187,104 188,104 190,104 190,103 188,103 			"/>
			<polygon id="polygon121" class="st3" points="177,96 188,96 188,98 189,98 189,96 189,93 188,93 187,93 187,91 186,91 186,93 
				179,93 179,91 178,91 178,93 176,93 176,95 176,96 176,104 177,104 183,104 183,103 177,103 			"/>
			<rect id="rect123" x="178" y="97" class="st3" width="2" height="2"/>
			<rect id="rect125" x="181" y="97" class="st3" width="2" height="2"/>
			<rect id="rect127" x="184" y="97" class="st3" width="2" height="2"/>
			<rect id="rect129" x="178" y="100" class="st3" width="2" height="2"/>
			<rect id="rect131" x="181" y="100" class="st3" width="2" height="2"/>
		</g>
		<path id="path133" class="st15" d="M246.9,1h-29.3c-1.9,0-3.6,1.1-3.6,3v21.4c0,1.9,1.8,3.6,3.6,3.6H239l11,7.7V25.4v-1.1V4
			C250,2.1,248.8,1,246.9,1z M225.5,16.4c-1.2,0-2.3-1-2.3-2.3c0-1.2,1-2.3,2.3-2.3c1.2,0,2.3,1,2.3,2.3S226.7,16.4,225.5,16.4z
			 M232.3,16.4c-1.2,0-2.3-1-2.3-2.3c0-1.2,1-2.3,2.3-2.3s2.3,1,2.3,2.3C234.5,15.4,233.5,16.4,232.3,16.4z M239,16.4
			c-1.2,0-2.3-1-2.3-2.3c0-1.2,1-2.3,2.3-2.3s2.3,1,2.3,2.3S240.3,16.4,239,16.4z"/>
		<polygon id="polygon135" class="st3" points="202.7,105.3 202,102 201,102 201,105 201,107 203,107 206,107 206,106 		"/>
		<path id="path137" class="st3" d="M206.5,103c-2.3,0-4.3,1.2-5.5,3v1h1.1c0.9-1.5,2.5-2.6,4.4-2.6c2.8,0,5.1,2.3,5.1,5.1
			s-2.3,5.1-5.1,5.1s-5.1-2.3-5.1-5.1c0-0.2,0-0.3,0.1-0.5H201h-1c0,0.2,0,0.3,0,0.5c0,3.6,2.9,6.5,6.5,6.5s6.5-2.9,6.5-6.5
			S210.1,103,206.5,103z"/>
		<path id="path139" class="st3" d="M230,102c-3.9,0-7,3.1-7,7s3.1,7,7,7s7-3.1,7-7S233.9,102,230,102z M230,114.7
			c-3.1,0-5.7-2.5-5.7-5.7s2.5-5.7,5.7-5.7s5.7,2.5,5.7,5.7S233.1,114.7,230,114.7z"/>
		<rect id="rect141" x="229" y="105" class="st3" width="1" height="5"/>
		<rect id="rect143" x="229" y="109" class="st3" width="5" height="1"/>
		<path id="path145" class="st14" d="M22,111.6c0,0.3,0,0.5-0.2,0.7l-2.3,2.2c-0.1,0.1-0.2,0.2-0.4,0.3c-0.2,0.1-0.3,0.1-0.5,0.2
			c0,0,0,0-0.1,0s-0.1,0-0.2,0c-0.2,0-0.6,0-1-0.1c-0.5-0.1-1.1-0.3-1.8-0.5c-0.7-0.3-1.5-0.7-2.4-1.3c-0.9-0.6-1.8-1.4-2.8-2.4
			c-0.8-0.8-1.4-1.5-2-2.2c-0.5-0.7-0.9-1.4-1.3-2c-0.3-0.6-0.6-1.2-0.7-1.6C6.1,104.4,6,104,6,103.6s0-0.7,0-0.9c0-0.2,0-0.3,0-0.3
			c0-0.2,0.1-0.3,0.2-0.5s0.2-0.3,0.3-0.4l2.3-2.3C8.9,99.1,9.1,99,9.3,99c0.1,0,0.3,0,0.4,0.1c0.1,0.1,0.2,0.2,0.3,0.3l1.8,3.4
			c0.1,0.2,0.1,0.4,0.1,0.6s-0.1,0.4-0.3,0.5l-0.8,0.8c0,0,0,0.1-0.1,0.1c0,0.1,0,0.1,0,0.1c0,0.2,0.1,0.5,0.3,0.8
			c0.1,0.3,0.3,0.6,0.6,1s0.7,0.8,1.2,1.3s1,0.9,1.4,1.2c0.4,0.3,0.7,0.5,1,0.6s0.5,0.2,0.6,0.2H16h0.1c0.1,0,0.1,0,0.1-0.1l1-1
			c0.2-0.2,0.4-0.3,0.7-0.3c0.2,0,0.3,0,0.5,0.1l0,0l3.3,1.9C21.8,111.2,22,111.4,22,111.6z"/>
		<g id="g147">
			<path id="path149" class="st3" d="M232,86L232,86c-3.2-4.7-5.3-2.9-8-2.9c-5.5,0-10-4.5-10-10s4.5-10,10-10s10,4.5,10,10
				C234,76.1,233.5,79.7,232,86z M231,82c1.2-3.8,1.1-8.5,1.1-8.9c0-4.4-3.6-8-8-8s-8,3.6-8,8s3.6,8,8,8
				C224.6,81.1,228.3,79.9,231,82z"/>
		</g>
		<g id="g151">
			<rect id="rect153" x="239" y="45" class="st3" width="8" height="1"/>
			<rect id="rect155" x="239" y="48" class="st3" width="8" height="1"/>
			<rect id="rect157" x="239" y="51" class="st3" width="8" height="1"/>
			<rect id="rect159" x="239" y="54" class="st3" width="5" height="1"/>
			<path id="path161" class="st3" d="M249.1,39h-11.6c-1.7,0-3.4,1.3-3.4,3v16c0,1.6,1.7,3,3.4,3h11.6c1.7,0,2.9-1.4,2.9-3V42
				C252,40.3,250.8,39,249.1,39z M250,58c0,0.6-0.3,1-0.9,1h-11.6c-0.6,0-1.4-0.4-1.4-1V42c0-0.6,0.8-1,1.4-1h11.6
				c0.6,0,0.9,0.4,0.9,1V58z"/>
		</g>
		<g id="g163">
			<path id="path165" class="st3" d="M228.8,39h-11.6c-1.7,0-3.2,1.3-3.2,3v16c0,1.6,1.4,3,3.2,3h11.6c1.7,0,3.2-1.4,3.2-3V42
				C232,40.3,230.6,39,228.8,39z M230,58c0,0.6-0.6,1-1.2,1h-11.6c-0.6,0-1.2-0.4-1.2-1V42c0-0.6,0.6-1,1.2-1h11.6
				c0.6,0,1.2,0.4,1.2,1V58z"/>
			<circle id="circle167" class="st3" cx="223" cy="53.7" r="1.3"/>
			<path id="path169" class="st3" d="M223.2,45.3c-1.6,0-3.2,1.1-3.2,2.4c0,0.5-0.1,1.3,0.9,1.3c1.3,0,0.3-2.1,2.2-2.1
				c0.8,0,1.4,0.5,1.4,1.2c0,1.3-2.3,1.5-2.3,3c0,0.4,0.3,0.9,0.9,0.9c0.9,0,0.6-0.6,1.3-1.3c0.6-0.6,1.6-0.8,1.8-2.5
				C226.4,46.6,224.9,45.3,223.2,45.3z"/>
		</g>
		<path id="path171" class="st13" d="M209,5.4V37c0,2.6-1.4,4-4,4h-20.6c0.8,1.8,2.5,3,4.6,3h18c2.8,0,5-2.2,5-5V10
			C212,8,210.8,6.2,209,5.4z"/>
		<path id="path173" class="st13" d="M203,1h-18c-2.8,0-5,2.2-5,5v29c0,2.8,2.2,5,5,5h18c2.8,0,5-2.2,5-5V6C208,3.2,205.8,1,203,1z
			 M195,29.5c0,0.3-0.2,0.5-0.5,0.5h-8c-0.3,0-0.5-0.2-0.5-0.5v-2c0-0.3,0.2-0.5,0.5-0.5h8c0.3,0,0.5,0.2,0.5,0.5V29.5z M202,23.5
			c0,0.3-0.2,0.5-0.5,0.5h-15c-0.3,0-0.5-0.2-0.5-0.5v-2c0-0.3,0.2-0.5,0.5-0.5h15c0.3,0,0.5,0.2,0.5,0.5V23.5z M202,17.5
			c0,0.3-0.2,0.5-0.5,0.5h-15c-0.3,0-0.5-0.2-0.5-0.5v-2c0-0.3,0.2-0.5,0.5-0.5h15c0.3,0,0.5,0.2,0.5,0.5V17.5z M202,11.5
			c0,0.3-0.2,0.5-0.5,0.5h-15c-0.3,0-0.5-0.2-0.5-0.5v-2c0-0.3,0.2-0.5,0.5-0.5h15c0.3,0,0.5,0.2,0.5,0.5V11.5z"/>
		<path id="path175" class="st4" d="M203,50.4V82c0,2.5-1.4,4-4,4h-20.6c0.8,1.8,2.5,3,4.6,3h18c2.8,0,5-2.2,5-5V55
			C206,53,204.8,51.2,203,50.4z"/>
		<path id="path177" class="st4" d="M197,46h-18c-2.8,0-5,2.2-5,5v29c0,2.8,2.2,5,5,5h18c2.8,0,5-2.2,5-5V51
			C202,48.2,199.8,46,197,46z M196.1,60.8c-0.3,0.5-9.9,11.9-10.1,12.2c-0.3,0.3-0.7,0.3-1,0c-0.4-0.4-6-8-6-8c-0.4-0.8,0.6-1.3,1-1
			c0.4,0.3,5.6,3.7,5.6,3.7s9.1-7.5,9.7-8S197.1,59.3,196.1,60.8z"/>
		<g id="g179">
			<circle id="circle181" class="st3" cx="22" cy="141" r="5"/>
			<path id="path183" class="st3" d="M36,132h-4c-0.5,0-1.5-0.5-1.7-1l-1-2.9c-0.2-0.5-0.8-1.1-1.3-1.1H18c-1.4,0-1.7,0.6-1.8,1.1
				l-1,2.9c-0.2,0.5-0.7,1-1.2,1h-4c-1.7,0-3,1.3-3,3.1V149c0,1.7,1.3,3,3,3h26c1.7,0,3-1.3,3-3v-14C39,133.3,37.7,132,36,132z
				 M22,149c-4.4,0-8-3.6-8-8s3.6-8,8-8s8,3.6,8,8S26.4,149,22,149z M34,138c-1.1,0-2-0.9-2-2s0.9-2,2-2s2,0.9,2,2S35.1,138,34,138z
				"/>
		</g>
		<path id="path185" class="st16" d="M18.6,18.2L14.4,14c0,0,0,0-0.1,0c2.5-3.1,2.2-7.7-0.7-10.6c-3.1-3.1-8.2-3.1-11.3,0
			s-3.1,8.2,0,11.3c2.9,2.9,7.4,3.1,10.6,0.7c0,0,0,0,0,0.1l4.2,4.2c0.4,0.4,1,0.4,1.4,0C19,19.2,19,18.6,18.6,18.2z M4,13.6
			c-2.5-2.2-2.8-6-0.7-8.6c2.2-2.5,6-2.8,8.6-0.7c2.5,2.2,2.8,6,0.7,8.6C10.4,15.5,6.6,15.8,4,13.6z"/>
		<path id="path187" class="st17" d="M68.6,150.2l-4.2-4.2c0,0,0,0-0.1,0c2.5-3.1,2.2-7.7-0.7-10.6c-3.1-3.1-8.2-3.1-11.3,0
			s-3.1,8.2,0,11.3c2.9,2.9,7.4,3.1,10.6,0.7c0,0,0,0,0,0.1l4.2,4.2c0.4,0.4,1,0.4,1.4,0C69,151.2,69,150.6,68.6,150.2z M54,145.6
			c-2.5-2.2-2.8-6-0.7-8.6c2.2-2.5,6-2.8,8.6-0.7c2.5,2.2,2.8,6,0.7,8.6C60.4,147.5,56.6,147.8,54,145.6z"/>
		<path id="path189" class="st17" d="M58,145L58,145c-0.5,0-1-0.4-1-1v-6c0-0.6,0.5-1,1-1l0,0c0.5,0,1,0.4,1,1v6
			C59,144.6,58.5,145,58,145z"/>
		<path id="path191" class="st17" d="M54,141L54,141c0-0.6,0.5-1,1-1h6c0.5,0,1,0.4,1,1l0,0c0,0.6-0.5,1-1,1h-6
			C54.5,142,54,141.6,54,141z"/>
		<path id="path193" inkscape:connector-curvature="0" class="st4" d="M89.5,133h-9c-0.4,0-0.6-0.4-0.4-0.8l4.4-7
			c0.3-0.3,0.8-0.3,1,0l4.4,6.9C90.1,132.5,90,133,89.5,133z"/>
		<path id="path195" inkscape:connector-curvature="0" class="st18" d="M103.5,125h-9c-0.4,0-0.6,0.4-0.4,0.8l4.4,7
			c0.3,0.3,0.8,0.3,1,0l4.4-7C104.2,125.3,103.9,125,103.5,125z"/>
		<g id="Rounded_Rectangle_2">
			<g id="g198">
				<path id="path200" class="st0" d="M126.8,152.6l-3.6-3.6l0,0c2.1-2.7,1.9-6.5-0.6-8.9c-2.6-2.6-6.9-2.6-9.6,0
					c-2.6,2.6-2.6,6.9,0,9.6c2.4,2.4,6.3,2.6,8.9,0.6l0,0l3.6,3.6c0.3,0.3,0.9,0.3,1.2,0C127.1,153.4,127.1,152.9,126.8,152.6z
					 M121.4,148.4c-2,2-5.2,2-7.2,0s-2-5.2,0-7.2s5.2-2,7.2,0C123.3,143.2,123.3,146.4,121.4,148.4z"/>
			</g>
		</g>
		<path id="path202" class="st0" d="M153.9,85.3c0-0.2-0.3-0.3-0.4-0.3c-0.6,0-1.2-0.4-1.4-1s-0.1-1.3,0.4-1.7
			c0.1-0.1,0.2-0.4,0-0.5c-0.3-0.4-0.7-0.8-1.1-1.1c-0.2-0.1-0.4-0.1-0.5,0c-0.4,0.5-1.2,0.6-1.7,0.4c-0.6-0.3-1-0.9-0.9-1.5
			c0-0.2-0.1-0.4-0.3-0.4c-0.5-0.1-1-0.1-1.6,0c-0.2,0-0.4,0.2-0.3,0.4c0,0.6-0.4,1.2-1,1.5c-0.6,0.2-1.3,0.1-1.7-0.4
			c-0.1-0.1-0.4-0.2-0.5,0c-0.4,0.3-0.8,0.7-1.1,1.1c-0.1,0.2-0.1,0.4,0,0.5c0.5,0.4,0.6,1.1,0.4,1.7s-0.8,0.9-1.5,0.9
			c-0.2,0-0.4,0.1-0.4,0.3c-0.1,0.5-0.1,1.1,0,1.6c0,0.2,0.3,0.3,0.5,0.3c0.6,0,1.2,0.4,1.4,1s0.1,1.3-0.4,1.7
			c-0.1,0.1-0.2,0.4,0,0.5c0.3,0.4,0.7,0.8,1.1,1.1c0.2,0.1,0.4,0.1,0.5,0c0.4-0.5,1.2-0.6,1.7-0.4c0.6,0.3,1,0.9,0.9,1.5
			c0,0.2,0.1,0.4,0.3,0.4c0.3,0,0.5,0,0.8,0s0.5,0,0.8,0c0.2,0,0.4-0.2,0.3-0.4c0-0.6,0.4-1.2,1-1.5c0.6-0.2,1.3-0.1,1.7,0.4
			c0.1,0.1,0.4,0.2,0.5,0c0.4-0.3,0.8-0.7,1.1-1.1c0.1-0.2,0.1-0.4,0-0.5c-0.5-0.4-0.6-1.1-0.4-1.7c0.2-0.6,0.8-0.9,1.4-0.9h0.1
			c0.2,0,0.4-0.1,0.4-0.3C153.9,86.3,153.9,85.8,153.9,85.3z M147,89c-1.7,0-3-1.3-3-3s1.3-3,3-3s3,1.3,3,3S148.7,89,147,89z"/>
		<polygon id="polygon204" class="st0" points="169.4,138.2 163,144.6 156.6,138.2 155.2,139.6 161.6,146 155.2,152.4 156.6,153.8 
			163,147.4 169.4,153.8 170.8,152.4 164.4,146 170.8,139.6 		"/>
	</g>
	<g id="Layer_2">
		<rect id="rect207" x="133" y="138" class="st0" width="16" height="2"/>
		<rect id="rect209" x="133" y="145" class="st0" width="16" height="2"/>
		<rect id="rect211" x="133" y="152" class="st0" width="16" height="2"/>
	</g>
	<path id="path213" class="st3" d="M98.7,1h-4.3c-0.8,0-1.9,0.9-2.4,1.5l-6.6,6.8c-0.6,0.6-0.6,1.6,0,2.1l5.1,5.1
		c0.6,0.6,1.5,0.6,2,0l7-6.6c0.6-0.6,1.5-1.6,1.5-2.4V3.4C101,2.6,99.5,1,98.7,1z M96.5,7.2c-1,0-1.7-0.8-1.7-1.7s0.8-1.7,1.7-1.7
		s1.7,0.8,1.7,1.7S97.5,7.2,96.5,7.2z"/>
	<g id="g215">
		<path id="path217" class="st15" d="M226,125c0,10.1-7.1,16-9,16s-9-6-9-16c0,0,4.1-4,9-4C222,121,226,125,226,125z"/>
		
			<linearGradient id="polygon224_1_" gradientUnits="userSpaceOnUse" x1="217.8809" y1="-1184.9666" x2="223.3966" y2="-1192.844" gradientTransform="matrix(1 0 0 -1 0 -1056)">
			<stop  offset="0" style="stop-color:#050505;stop-opacity:0.3"/>
			<stop  offset="0.7734" style="stop-color:#000000;stop-opacity:0"/>
		</linearGradient>
		<polygon id="polygon224" class="st19" points="216,133 219.2,139.7 225,131 222,126 		"/>
		<path id="path226" class="st12" d="M221.8,126.5c-0.2,0.3-5.2,6.2-5.3,6.4c-0.2,0.2-0.4,0.2-0.5,0c-0.2-0.2-3.1-4.2-3.1-4.2
			c-0.2-0.4,0.3-0.7,0.5-0.5s2.9,1.9,2.9,1.9s4.8-3.9,5.1-4.2S222.3,125.7,221.8,126.5z"/>
	</g>
	<path id="path228" class="st3" d="M38,100c-4.4,0-8,3.6-8,8s3.6,8,8,8s8-3.6,8-8S42.4,100,38,100z M38,115c-3.9,0-7-3.1-7-7
		s3.1-7,7-7s7,3.1,7,7S41.9,115,38,115z"/>
	<path id="path230" class="st3" d="M36.4,100.8C36.4,100.9,36.4,100.9,36.4,100.8c0.1,0,0.2,0.1,0.3,0.1s0.2,0,0.2,0
		c0.2,0,0.4,0.2,0.4,0.1c0,0,0-0.1,0.1-0.1l0.1-0.1c0.1,0,0.1,0,0.2,0c0.4,0,0.9,0.1,1.3,0.2c0,0.1-0.1,0-0.1,0.1
		c-0.1,0-0.1,0.1-0.1,0.1c-0.2,0-0.3,0-0.4,0c0,0.1,0.1,0.1,0.1,0.1c0.1,0.1,0.2,0.1,0.4,0.1c0.1,0,0.2,0,0.3,0c0,0,0-0.1,0.1-0.1
		c0,0,0,0,0.1,0s0.2,0,0.3,0.1c0,0.1-0.1,0-0.1,0.1c0.1,0,0.2,0,0.2-0.1c0,0,0,0,0.1,0s0.2,0.1,0.4,0.1c0.2,0.1,0.3,0.1,0.4,0.2
		h-0.1c-0.1,0-0.1-0.1-0.2-0.1c0,0.1,0.1,0.1,0.2,0.2c0.1,0,0.1,0.1,0.2,0.2c-0.1,0.1-0.2,0-0.3,0s-0.3,0.2-0.4,0
		c0-0.1,0.1-0.1,0.2-0.2c0,0,0,0-0.1,0c0,0-0.1,0-0.1,0.1c-0.1,0-0.1,0.1-0.2,0.1c-0.1,0-0.1,0-0.2,0c-0.1,0-0.2,0.1-0.3,0.1h-0.1
		c-0.1,0-0.2,0.1-0.3,0.2s-0.2,0.1-0.3,0.2c0,0-0.1,0.1-0.1,0.2s0.1,0.1,0.1,0.1s-0.1,0.1,0,0.1c0,0,0.1,0,0.2,0s0.2,0.1,0.3,0.2
		c0.1,0,0.2,0.1,0.3,0.1s0.2,0,0.3,0.1c0,0.1-0.1,0.1-0.1,0.2c0.1,0.1,0,0.1,0,0.2s0.1,0.1,0.1,0.2c0.1,0,0.2-0.1,0.2-0.2
		s0-0.2,0.1-0.3c0.4,0,0.6-0.2,0.6-0.5v-0.1c0-0.1,0.1-0.1,0.1-0.2c0,0,0.1,0,0.1-0.1s0.1-0.1,0.1-0.1l0,0h0.1c0.1,0,0.1,0.1,0.2,0
		h0.1c0.1,0,0.1,0.1,0.2,0.2c0.1,0,0.1,0,0.1,0.1s-0.1,0.1-0.1,0.2l0,0c0,0.1,0.1,0.1,0.1,0.1c0.1,0,0.2,0,0.2-0.1
		c0.1,0,0.1-0.1,0.2-0.1c0.1,0.1,0.2,0.1,0.2,0.2v0.1c0,0.1,0,0.2,0,0.2c0,0.1,0.2,0.1,0.3,0.2c0,0,0,0.1,0.1,0.1
		c0,0.1,0.1,0.1,0.1,0.1c0,0.1-0.1,0.2-0.1,0.3c0,0.1-0.1,0.1-0.1,0.1c0,0.1,0.2,0,0.3,0.1c0,0.1,0,0.1,0,0.2
		c0.1,0.1,0.1,0.2-0.1,0.2c-0.1,0-0.1-0.1-0.2-0.1h-0.1h-0.1c-0.1,0-0.2,0-0.3,0c0.1-0.1,0.2-0.3,0.4-0.4l0.1-0.1
		c-0.1-0.1-0.2,0-0.2,0c-0.1,0-0.2,0.1-0.2,0.1c-0.1,0-0.3,0-0.4,0c0,0.1,0.1,0,0.1,0.1c-0.1,0-0.1,0-0.2,0v-0.1c0,0-0.2,0-0.3,0
		s-0.2,0.1-0.2,0.1c0.1,0.1,0.3-0.1,0.3,0.1c-0.1,0.1-0.2,0.2-0.2,0.3c0,0.1,0.1,0.1,0.1,0.1h0.1c0,0,0,0.1,0.1,0.1s0.1-0.1,0.2-0.1
		c0.1,0.1-0.1,0.2-0.2,0.2c-0.1,0-0.3,0.1-0.4,0.1c-0.1,0-0.3,0.2-0.3,0.1s0.1-0.1,0.1-0.2c-0.1,0-0.3,0.1-0.4,0.1
		c-0.2,0.1-0.4,0.1-0.4,0.3v0.1c0,0-0.1,0-0.2,0c-0.1,0-0.2,0.1-0.2,0.1h-0.1c-0.1,0-0.1,0.1-0.2,0.2c0,0-0.1,0-0.1,0.1
		c0,0,0,0.2-0.1,0.2h-0.1c0,0.1,0,0.3,0,0.4c-0.1,0.1-0.2,0.1-0.3,0.2c-0.1,0-0.1,0.1-0.2,0.1c-0.1,0-0.1,0.1-0.2,0.1
		c-0.2,0.1-0.4,0.2-0.4,0.4c0,0.1,0,0.1,0,0.2v0.1c0,0.1,0.1,0.2,0,0.3c-0.1,0-0.3-0.1-0.3-0.1c0-0.1,0-0.2,0-0.2
		c0-0.1-0.1-0.2-0.1-0.2c-0.1,0-0.1,0-0.2,0c-0.1,0-0.1-0.1-0.2-0.1c-0.1,0-0.2,0-0.3,0c-0.1,0.1-0.2,0.2-0.3,0.2s-0.1,0-0.2-0.1
		c-0.1,0-0.2,0-0.2,0c-0.1,0-0.2,0.1-0.4,0.2c-0.1,0.1-0.3,0.1-0.3,0.2s0,0.2,0,0.2s0,0.1-0.1,0.1c-0.1,0.2-0.2,0.4-0.1,0.6
		c0,0,0.1,0.2,0.1,0.3l0.2,0.1c0.1,0,0.1,0,0.2,0c0.1,0,0.2,0,0.2,0c0.2-0.1,0.1-0.3,0.3-0.4c0.1,0,0.2,0,0.3-0.1
		c0,0,0.1,0.1,0.1,0.2c0,0,0,0.1-0.1,0.1c0,0.1,0,0.1,0,0.2s-0.1,0.1-0.1,0.2v0.1c0,0.1-0.1,0.1-0.1,0.2c0.2,0.1,0.4,0,0.5,0
		s0.2,0.1,0.2,0.2s-0.1,0.1-0.1,0.2s-0.1,0.2-0.1,0.3c0,0.1,0.2,0.4,0.4,0.4s0.3-0.2,0.4-0.1c0.1,0,0.1,0.1,0.2,0.1s0.1-0.1,0.2-0.2
		c0-0.1,0.1-0.2,0.1-0.2c0.1,0,0.2,0,0.3-0.1c0.1,0,0.1-0.1,0.1-0.1l0.1-0.1c0.1,0.1-0.1,0.1,0,0.2s0.2-0.1,0.3-0.1
		c0,0,0.1,0.1,0.2,0.1s0.1,0.1,0.2,0.1c0,0,0.1,0,0.2,0s0.1,0.1,0.2,0.1c0.1,0,0.1-0.1,0.2-0.1c0.2,0,0.2,0,0.3,0.1
		c0.1,0,0.1-0.1,0.1-0.1c0,0.1,0,0.1,0,0.2v0.1c0,0,0.1,0,0.2,0.1c0.1,0,0.1,0.1,0.2,0.2c0.1,0.1,0.2,0.2,0.3,0.2s0.2,0,0.2,0
		c0.2,0,0.3,0.1,0.4,0.2c0.1,0.1,0.1,0.1,0.2,0.2c0,0,0,0.1,0,0.2s0.2,0.2,0.1,0.3c0,0.1,0.1,0.1,0.1,0.1l0.1,0.1h0.1
		c0.1,0,0.2,0,0.2,0.1c0.1,0,0.1,0,0.2,0.1c0,0,0,0.1,0.1,0.2c0,0,0.1,0,0.2,0c0.1,0,0.2,0.1,0.3,0.1h0.1c0.1,0,0.2,0.1,0.3,0.1
		c-0.9,1.5-2.4,2.6-4.1,3c0-0.1,0-0.1,0-0.2c0-0.2,0-0.3,0-0.4s0-0.3-0.1-0.4c0-0.1-0.2-0.2-0.3-0.3c-0.1,0-0.1,0-0.2-0.1
		c-0.1-0.1-0.4-0.2-0.4-0.3v-0.1c0-0.1-0.1-0.2-0.2-0.2c-0.1-0.2-0.2-0.4-0.3-0.4c-0.1-0.1-0.1-0.2-0.2-0.2c0,0-0.1-0.1-0.2-0.1
		c0-0.1-0.1-0.2-0.1-0.2c0-0.1,0.2-0.1,0.2-0.2s-0.1-0.1-0.1-0.2s0-0.2,0.1-0.3c0,0,0-0.1,0.1-0.1l0.1-0.1c0,0,0-0.1,0.1-0.1
		c0.1-0.1,0.2-0.1,0.2-0.2s0-0.4,0-0.4s-0.1-0.1-0.1-0.2s0-0.2-0.2-0.2c-0.1,0-0.1,0.1-0.2,0.1c0,0.1,0,0.1-0.1,0.1
		s-0.1-0.1-0.2-0.1h-0.1c-0.1,0-0.1-0.2-0.2-0.2s-0.1,0-0.2-0.1c0,0,0-0.1,0-0.2c-0.1-0.1-0.2-0.3-0.3-0.3s-0.2,0-0.3-0.1h-0.1
		c-0.1,0-0.1,0-0.2,0c-0.2-0.1-0.3-0.4-0.4-0.3c-0.1,0-0.2,0.1-0.3,0.1s-0.2-0.1-0.3-0.1s-0.2-0.1-0.3-0.1s-0.1-0.1-0.2-0.1
		c0,0-0.1,0-0.2,0c-0.1,0-0.1-0.1-0.2-0.1c-0.1,0-0.1-0.1-0.1-0.2s0.1-0.1,0.1-0.2c0-0.2-0.1-0.3-0.2-0.4c-0.1-0.1-0.2-0.2-0.2-0.2
		c0-0.1,0-0.1,0-0.1c-0.1-0.1-0.1-0.1-0.2-0.2s-0.1-0.1-0.2-0.2c0-0.1,0-0.2,0-0.3c-0.1-0.2-0.3-0.1-0.2,0.1c0,0.1,0.1,0.1,0.1,0.2
		s0,0.1,0,0.2s0.1,0.1,0.1,0.2s0,0.2,0.1,0.3c0,0.1,0.1,0.1,0.1,0.2c-0.1,0-0.1-0.1-0.2-0.1l-0.1-0.1c0,0,0-0.1,0-0.2
		s-0.3-0.1-0.3-0.2s0.1-0.1,0.1-0.2s-0.1-0.2-0.1-0.2c0-0.1,0-0.2,0-0.3c0-0.1,0-0.2,0-0.2c0-0.1-0.1-0.1-0.2-0.2
		c-0.1,0-0.1,0-0.2-0.1c0-0.1-0.1-0.2-0.1-0.2c0-0.1,0-0.2,0-0.3c0-0.1,0-0.2,0-0.3c0-0.1,0.1-0.1,0.2-0.2c0-0.1,0-0.1,0.1-0.2
		s0.2-0.2,0.3-0.3c0.1-0.1,0.2-0.2,0.2-0.4l0.1-0.2c0-0.1-0.2-0.1-0.2-0.2s0.1-0.1,0.1-0.1s0-0.1,0-0.2s0-0.2,0-0.3
		c0-0.1,0.1-0.1,0.1-0.2c-0.1-0.1-0.2,0-0.2,0c-0.1,0,0-0.1,0-0.2v-0.1l0.1-0.1c0,0-0.1-0.1-0.1-0.2
		C34.3,101.5,35.3,101.1,36.4,100.8z"/>
</g>
<g id="Layer_2_1_">
	<path id="path233" class="st4" d="M192,121c-5.5,0-10,4.5-10,10s4.5,10,10,10s10-4.5,10-10S197.5,121,192,121z M198.4,128.2
		l-7.4,7.4c-0.1,0.1-0.3,0.1-0.3,0.1c-0.1,0.1-0.3,0-0.3-0.1l-4.6-4.6c-0.2-0.2-0.2-0.4,0-0.6l1.2-1.2c0.2-0.2,0.4-0.2,0.6,0
		l3.2,3.2l5.9-5.9c0.2-0.2,0.4-0.2,0.6,0l1.2,1.2C198.5,127.8,198.5,128,198.4,128.2z"/>
</g>
<g id="g235">
	<path id="path237" class="st20" d="M240,81c0,1.1,0.9,2,2,2h6c1.1,0,2-0.9,2-2V71h-10V81z"/>
	<path id="path239" class="st20" d="M249,68h-2v-1h-4v1h-2c-0.6,0-1,0.4-1,1v1h10v-1C250,68.4,249.6,68,249,68z"/>
</g>
<path id="path241" class="st0" d="M237.3,120.7L237.3,120.7c-0.4-0.4-1-0.4-1.4,0l-5.7,5.7l1.8,0.6l-1.8,0.6l5.7,5.7
	c0.4,0.4,1,0.4,1.4,0l0,0c0.4-0.4,0.4-1,0-1.4l-4.9-4.9l4.9-4.9C237.7,121.7,237.7,121.1,237.3,120.7z"/>
<path id="path243" class="st0" d="M243,128h-12c-0.6,0-1-0.4-1-1l0,0c0-0.6,0.4-1,1-1h12c0.6,0,1,0.4,1,1l0,0
	C244,127.6,243.6,128,243,128z"/>
<path id="path3582" inkscape:connector-curvature="0" class="st21" d="M104.7,141H76.3c-1.9,0-3.3,1.2-3.3,2.9v18.4
	c0,1.6,1.4,2.9,3.3,2.9h22.2l9.5,6.8v-28.1C107.8,142.2,106.5,141,104.7,141L104.7,141z"/>
<path id="path226-69" inkscape:connector-curvature="0" class="st12" d="M98.5,149c-0.3,0.4-8.7,8.5-8.9,8.8c-0.3,0.3-0.7,0.3-0.8,0
	c-0.3-0.3-5.2-5.8-5.2-5.8c-0.3-0.6,0.5-1,0.8-0.7s4.9,2.6,4.9,2.6s8-5.4,8.5-5.8C98.3,147.8,99.3,147.9,98.5,149z"/>
<g>
	<g>
		<path class="st0" d="M270.3,21.1L270.3,21.1c-0.1,0-0.1,0-0.1,0c-2,0-3.7-0.8-4.9-2.1c-2.7-3-2.2-8.3-2.2-8.8
			c0.1-3.6,1.8-5.4,3.2-6.2c1.5-1,3.2-1.1,3.9-1.1c0.1,0,0.1,0,0.1,0c0.1,0,0.1,0,0.1,0c0.6,0,2.3,0.1,3.9,1.1
			c1.4,0.8,3,2.6,3.2,6.2c0.1,0.5,0.5,5.7-2.2,8.8C274.1,20.3,272.4,21,270.3,21.1C270.3,21.1,270.3,21.1,270.3,21.1z M270.3,19.3
			L270.3,19.3L270.3,19.3c1.6,0,2.8-0.5,3.7-1.5c2.2-2.5,1.8-7.4,1.8-7.4v-0.1c-0.2-5.3-4.1-5.7-5.3-5.7c-0.1,0-0.1,0-0.1,0h-0.1
			c0,0-0.1,0-0.1,0c-1.2,0-5,0.4-5.3,5.7v0.1c0,0.1-0.5,4.9,1.8,7.4C267.5,18.7,268.7,19.2,270.3,19.3
			C270.2,19.3,270.3,19.3,270.3,19.3L270.3,19.3z"/>
	</g>
	<g>
		<path class="st0" d="M270.3,36.7c-0.5,0-0.9-0.4-0.9-0.9s0.4-0.9,0.9-0.9c6.9,0,11.4-2.3,12.5-2.9c0.1-0.6,0.1-1.5,0.1-2.1
			c0-0.1,0-0.1,0-0.2c0.1-1.3,0-3.6-1.9-4.1c-3.5-0.9-6.3-2.9-6.5-2.9c-0.4-0.3-0.5-0.8-0.2-1.2c0.3-0.4,0.8-0.5,1.2-0.2
			c0,0,2.7,1.9,5.9,2.7c2.2,0.6,3.4,2.7,3.2,5.8v0.1c0,0.4,0,2.2-0.4,3.2c-0.1,0.1-0.2,0.3-0.4,0.4
			C283.8,33.5,278.8,36.7,270.3,36.7z"/>
	</g>
	<g>
		<path class="st0" d="M270.3,36.7c-8.4,0-13.5-3.2-13.7-3.4c-0.1-0.1-0.3-0.2-0.4-0.4c-0.4-0.9-0.4-2.7-0.4-3.1
			c-0.2-3.2,1-5.3,3.2-5.9c3.2-0.8,5.8-2.7,5.9-2.7c0.4-0.3,0.9-0.2,1.2,0.2c0.3,0.4,0.2,0.9-0.2,1.2c-0.1,0.1-2.9,2-6.5,2.9
			c-1.9,0.5-2,2.7-1.9,4.1v0.1c0,0.6,0.1,1.7,0.1,2.2c1.1,0.6,5.6,2.9,12.5,2.9c0.5,0,0.9,0.4,0.9,0.9S270.8,36.7,270.3,36.7z"/>
	</g>
</g>
</svg>
